<mxfile host="app.diagrams.net" modified="2023-08-21T06:58:43.996Z" agent="Mozilla/5.0 (X11; Linux x86_64) AppleWebKit/537.36 (KHTML, like Gecko) Chrome/116.0.0.0 Safari/537.36" etag="SnDTMm6G7lykNZgmmJ3g" version="21.6.8" type="github">
  <diagram name="0001" id="y2zCg2tqc-IcQTNm7M6H">
    <mxGraphModel dx="956" dy="505" grid="1" gridSize="10" guides="1" tooltips="1" connect="1" arrows="1" fold="1" page="1" pageScale="1" pageWidth="1169" pageHeight="827" math="0" shadow="0">
      <root>
        <mxCell id="sdHGfgtrLrPXHbDimJ2l-0" />
        <mxCell id="sdHGfgtrLrPXHbDimJ2l-1" parent="sdHGfgtrLrPXHbDimJ2l-0" />
        <mxCell id="sdHGfgtrLrPXHbDimJ2l-57" value="&lt;b style=&quot;font-size: 16px;&quot;&gt;按钮巨阵场景分析&lt;/b&gt;" style="text;html=1;align=left;verticalAlign=middle;resizable=0;points=[];autosize=1;strokeColor=none;fillColor=none;fontSize=16;rounded=0;labelBackgroundColor=none;" parent="sdHGfgtrLrPXHbDimJ2l-1" vertex="1">
          <mxGeometry x="80" y="20" width="150" height="30" as="geometry" />
        </mxCell>
        <mxCell id="XszwH73IWbjCUJtmpfXL-0" value="UKOK16&lt;br&gt;192.168.101.161" style="rounded=0;whiteSpace=wrap;html=1;" vertex="1" parent="sdHGfgtrLrPXHbDimJ2l-1">
          <mxGeometry x="80" y="280" width="240" height="80" as="geometry" />
        </mxCell>
        <mxCell id="XszwH73IWbjCUJtmpfXL-1" value="UKOk16&lt;br&gt;192.168.101.162" style="rounded=0;whiteSpace=wrap;html=1;" vertex="1" parent="sdHGfgtrLrPXHbDimJ2l-1">
          <mxGeometry x="400" y="280" width="240" height="80" as="geometry" />
        </mxCell>
        <mxCell id="XszwH73IWbjCUJtmpfXL-12" value="" style="edgeStyle=orthogonalEdgeStyle;rounded=0;orthogonalLoop=1;jettySize=auto;html=1;exitX=0.5;exitY=1;exitDx=0;exitDy=0;" edge="1" parent="sdHGfgtrLrPXHbDimJ2l-1" source="XszwH73IWbjCUJtmpfXL-2">
          <mxGeometry relative="1" as="geometry">
            <mxPoint x="200" y="281" as="targetPoint" />
          </mxGeometry>
        </mxCell>
        <mxCell id="XszwH73IWbjCUJtmpfXL-22" value="" style="edgeStyle=orthogonalEdgeStyle;rounded=0;orthogonalLoop=1;jettySize=auto;html=1;exitX=0.5;exitY=1;exitDx=0;exitDy=0;strokeColor=#000000;" edge="1" parent="sdHGfgtrLrPXHbDimJ2l-1" source="XszwH73IWbjCUJtmpfXL-2">
          <mxGeometry relative="1" as="geometry">
            <mxPoint x="520.0400000000002" y="281" as="targetPoint" />
          </mxGeometry>
        </mxCell>
        <mxCell id="XszwH73IWbjCUJtmpfXL-2" value="USB Server&lt;br&gt;192.168.101.101" style="rounded=0;whiteSpace=wrap;html=1;" vertex="1" parent="sdHGfgtrLrPXHbDimJ2l-1">
          <mxGeometry x="240" y="80" width="240" height="80" as="geometry" />
        </mxCell>
        <mxCell id="XszwH73IWbjCUJtmpfXL-18" value="" style="edgeStyle=orthogonalEdgeStyle;rounded=0;orthogonalLoop=1;jettySize=auto;html=1;dashed=1;" edge="1" parent="sdHGfgtrLrPXHbDimJ2l-1" source="XszwH73IWbjCUJtmpfXL-3">
          <mxGeometry relative="1" as="geometry">
            <mxPoint x="200.03999999999996" y="360" as="targetPoint" />
          </mxGeometry>
        </mxCell>
        <mxCell id="XszwH73IWbjCUJtmpfXL-20" value="" style="edgeStyle=orthogonalEdgeStyle;rounded=0;orthogonalLoop=1;jettySize=auto;html=1;dashed=1;" edge="1" parent="sdHGfgtrLrPXHbDimJ2l-1" source="XszwH73IWbjCUJtmpfXL-3">
          <mxGeometry relative="1" as="geometry">
            <mxPoint x="520.0400000000002" y="360" as="targetPoint" />
          </mxGeometry>
        </mxCell>
        <mxCell id="XszwH73IWbjCUJtmpfXL-24" value="" style="edgeStyle=orthogonalEdgeStyle;rounded=0;orthogonalLoop=1;jettySize=auto;html=1;dashed=1;" edge="1" parent="sdHGfgtrLrPXHbDimJ2l-1" source="XszwH73IWbjCUJtmpfXL-3">
          <mxGeometry relative="1" as="geometry">
            <mxPoint x="840.0400000000002" y="360" as="targetPoint" />
          </mxGeometry>
        </mxCell>
        <mxCell id="XszwH73IWbjCUJtmpfXL-26" value="" style="edgeStyle=orthogonalEdgeStyle;rounded=0;orthogonalLoop=1;jettySize=auto;html=1;dashed=1;" edge="1" parent="sdHGfgtrLrPXHbDimJ2l-1" source="XszwH73IWbjCUJtmpfXL-3">
          <mxGeometry relative="1" as="geometry">
            <mxPoint x="1170.04" y="360" as="targetPoint" />
          </mxGeometry>
        </mxCell>
        <mxCell id="XszwH73IWbjCUJtmpfXL-28" value="" style="edgeStyle=orthogonalEdgeStyle;rounded=0;orthogonalLoop=1;jettySize=auto;html=1;entryX=1;entryY=0.5;entryDx=0;entryDy=0;" edge="1" parent="sdHGfgtrLrPXHbDimJ2l-1" source="XszwH73IWbjCUJtmpfXL-3">
          <mxGeometry relative="1" as="geometry">
            <mxPoint x="480" y="120" as="targetPoint" />
            <Array as="points">
              <mxPoint x="680" y="120" />
            </Array>
          </mxGeometry>
        </mxCell>
        <mxCell id="XszwH73IWbjCUJtmpfXL-30" value="" style="edgeStyle=orthogonalEdgeStyle;rounded=0;orthogonalLoop=1;jettySize=auto;html=1;entryX=0;entryY=0.5;entryDx=0;entryDy=0;" edge="1" parent="sdHGfgtrLrPXHbDimJ2l-1">
          <mxGeometry relative="1" as="geometry">
            <mxPoint x="680" y="441" as="sourcePoint" />
            <mxPoint x="880" y="120" as="targetPoint" />
            <Array as="points">
              <mxPoint x="680" y="120" />
            </Array>
          </mxGeometry>
        </mxCell>
        <mxCell id="XszwH73IWbjCUJtmpfXL-3" value="U盾操作员主机&lt;br&gt;192.168.101.251" style="rounded=0;whiteSpace=wrap;html=1;" vertex="1" parent="sdHGfgtrLrPXHbDimJ2l-1">
          <mxGeometry x="560" y="440" width="240" height="80" as="geometry" />
        </mxCell>
        <mxCell id="XszwH73IWbjCUJtmpfXL-14" value="" style="edgeStyle=orthogonalEdgeStyle;rounded=0;orthogonalLoop=1;jettySize=auto;html=1;exitX=0.5;exitY=1;exitDx=0;exitDy=0;" edge="1" parent="sdHGfgtrLrPXHbDimJ2l-1" source="XszwH73IWbjCUJtmpfXL-4">
          <mxGeometry relative="1" as="geometry">
            <mxPoint x="1170" y="281" as="targetPoint" />
          </mxGeometry>
        </mxCell>
        <mxCell id="XszwH73IWbjCUJtmpfXL-16" value="" style="edgeStyle=orthogonalEdgeStyle;rounded=0;orthogonalLoop=1;jettySize=auto;html=1;exitX=0.5;exitY=1;exitDx=0;exitDy=0;" edge="1" parent="sdHGfgtrLrPXHbDimJ2l-1" source="XszwH73IWbjCUJtmpfXL-4">
          <mxGeometry relative="1" as="geometry">
            <mxPoint x="840" y="281" as="targetPoint" />
          </mxGeometry>
        </mxCell>
        <mxCell id="XszwH73IWbjCUJtmpfXL-4" value="USB Server&lt;br&gt;192.168.101.102" style="rounded=0;whiteSpace=wrap;html=1;" vertex="1" parent="sdHGfgtrLrPXHbDimJ2l-1">
          <mxGeometry x="880" y="80" width="240" height="80" as="geometry" />
        </mxCell>
        <mxCell id="XszwH73IWbjCUJtmpfXL-5" value="UKOK16&lt;br&gt;192.168.101.172" style="rounded=0;whiteSpace=wrap;html=1;" vertex="1" parent="sdHGfgtrLrPXHbDimJ2l-1">
          <mxGeometry x="1040" y="280" width="240" height="80" as="geometry" />
        </mxCell>
        <mxCell id="XszwH73IWbjCUJtmpfXL-6" value="UKOK16&lt;br&gt;192.168.101.171" style="rounded=0;whiteSpace=wrap;html=1;" vertex="1" parent="sdHGfgtrLrPXHbDimJ2l-1">
          <mxGeometry x="720" y="280" width="240" height="80" as="geometry" />
        </mxCell>
      </root>
    </mxGraphModel>
  </diagram>
</mxfile>
